<?xml version="1.0" encoding="UTF-8" standalone="no"?>
<!-- Created with Inkscape (http://www.inkscape.org/) -->

<svg
   xmlns:ooo="http://xml.openoffice.org/svg/export"
   xmlns:dc="http://purl.org/dc/elements/1.1/"
   xmlns:cc="http://creativecommons.org/ns#"
   xmlns:rdf="http://www.w3.org/1999/02/22-rdf-syntax-ns#"
   xmlns:svg="http://www.w3.org/2000/svg"
   xmlns="http://www.w3.org/2000/svg"
   xmlns:sodipodi="http://sodipodi.sourceforge.net/DTD/sodipodi-0.dtd"
   xmlns:inkscape="http://www.inkscape.org/namespaces/inkscape"
   width="1694.715mm"
   height="1693.6565mm"
   viewBox="0 0 1694.715 1693.6565"
   version="1.1"
   id="svg8"
   inkscape:version="0.92.1 r15371"
   sodipodi:docname="nectar.svg">
  <defs
     id="defs2">
    <clipPath
       clipPathUnits="userSpaceOnUse"
       id="presentation_clip_path">
      <rect
         id="rect4485"
         height="29700"
         width="21000"
         y="0"
         x="0" />
    </clipPath>
    <clipPath
       clipPathUnits="userSpaceOnUse"
       id="presentation_clip_path_shrink">
      <rect
         id="rect4488"
         height="29641"
         width="20958"
         y="29"
         x="21" />
    </clipPath>
    <g
       id="g4493"
       ooo:id-list="id3 id4 id5 id6 id7 id8"
       ooo:slide="id1" />
    <g
       transform="matrix(4.8828125e-4,0,0,-4.8828125e-4,0,0)"
       id="bullet-char-template-57356">
      <path
         id="path4497"
         d="M 580,1141 1163,571 580,0 -4,571 Z"
         inkscape:connector-curvature="0" />
    </g>
    <g
       transform="matrix(4.8828125e-4,0,0,-4.8828125e-4,0,0)"
       id="bullet-char-template-57354">
      <path
         id="path4500"
         d="M 8,1128 H 1137 V 0 H 8 Z"
         inkscape:connector-curvature="0" />
    </g>
    <g
       transform="matrix(4.8828125e-4,0,0,-4.8828125e-4,0,0)"
       id="bullet-char-template-10146">
      <path
         id="path4503"
         d="M 174,0 602,739 174,1481 1456,739 Z M 1358,739 309,1346 659,739 Z"
         inkscape:connector-curvature="0" />
    </g>
    <g
       transform="matrix(4.8828125e-4,0,0,-4.8828125e-4,0,0)"
       id="bullet-char-template-10132">
      <path
         id="path4506"
         d="M 2015,739 1276,0 H 717 l 543,543 H 174 v 393 h 1086 l -543,545 h 557 z"
         inkscape:connector-curvature="0" />
    </g>
    <g
       transform="matrix(4.8828125e-4,0,0,-4.8828125e-4,0,0)"
       id="bullet-char-template-10007">
      <path
         id="path4509"
         d="m 0,-2 c -7,16 -16,29 -25,39 l 381,530 c -94,256 -141,385 -141,387 0,25 13,38 40,38 9,0 21,-2 34,-5 21,4 42,12 65,25 l 27,-13 111,-251 280,301 64,-25 24,25 c 21,-10 41,-24 62,-43 C 886,937 835,863 770,784 769,783 710,716 594,584 L 774,223 c 0,-27 -21,-55 -63,-84 l 16,-20 C 717,90 699,76 672,76 641,76 570,178 457,381 L 164,-76 c -22,-34 -53,-51 -92,-51 -42,0 -63,17 -64,51 -7,9 -10,24 -10,44 0,9 1,19 2,30 z"
         inkscape:connector-curvature="0" />
    </g>
    <g
       transform="matrix(4.8828125e-4,0,0,-4.8828125e-4,0,0)"
       id="bullet-char-template-10004">
      <path
         id="path4512"
         d="M 285,-33 C 182,-33 111,30 74,156 52,228 41,333 41,471 c 0,78 14,145 41,201 34,71 87,106 158,106 53,0 88,-31 106,-94 l 23,-176 c 8,-64 28,-97 59,-98 l 735,706 c 11,11 33,17 66,17 42,0 63,-15 63,-46 V 965 c 0,-36 -10,-64 -30,-84 L 442,47 C 390,-6 338,-33 285,-33 Z"
         inkscape:connector-curvature="0" />
    </g>
    <g
       transform="matrix(4.8828125e-4,0,0,-4.8828125e-4,0,0)"
       id="bullet-char-template-9679">
      <path
         id="path4515"
         d="M 813,0 C 632,0 489,54 383,161 276,268 223,411 223,592 c 0,181 53,324 160,431 106,107 249,161 430,161 179,0 323,-54 432,-161 108,-107 162,-251 162,-431 0,-180 -54,-324 -162,-431 C 1136,54 992,0 813,0 Z"
         inkscape:connector-curvature="0" />
    </g>
    <g
       transform="matrix(4.8828125e-4,0,0,-4.8828125e-4,0,0)"
       id="bullet-char-template-8226">
      <path
         id="path4518"
         d="m 346,457 c -73,0 -137,26 -191,78 -54,51 -81,114 -81,188 0,73 27,136 81,188 54,52 118,78 191,78 73,0 134,-26 185,-79 51,-51 77,-114 77,-187 0,-75 -25,-137 -76,-188 -50,-52 -112,-78 -186,-78 z"
         inkscape:connector-curvature="0" />
    </g>
    <g
       transform="matrix(4.8828125e-4,0,0,-4.8828125e-4,0,0)"
       id="bullet-char-template-8211">
      <path
         id="path4521"
         d="M -4,459 H 1135 V 606 H -4 Z"
         inkscape:connector-curvature="0" />
    </g>
    <g
       transform="matrix(4.8828125e-4,0,0,-4.8828125e-4,0,0)"
       id="bullet-char-template-61548">
      <path
         id="path4524"
         d="m 173,740 c 0,163 58,303 173,419 116,115 255,173 419,173 163,0 302,-58 418,-173 116,-116 174,-256 174,-419 0,-163 -58,-303 -174,-418 C 1067,206 928,148 765,148 601,148 462,206 346,322 231,437 173,577 173,740 Z"
         inkscape:connector-curvature="0" />
    </g>
  </defs>
  <sodipodi:namedview
     id="base"
     pagecolor="#ffffff"
     bordercolor="#666666"
     borderopacity="1.0"
     inkscape:pageopacity="0.0"
     inkscape:pageshadow="2"
     inkscape:zoom="0.17727627"
     inkscape:cx="2559.0426"
     inkscape:cy="4342.633"
     inkscape:document-units="mm"
     inkscape:current-layer="g4588"
     showgrid="false"
     inkscape:window-width="3440"
     inkscape:window-height="1377"
     inkscape:window-x="-8"
     inkscape:window-y="-8"
     inkscape:window-maximized="1" />
  <metadata
     id="metadata5">
    <rdf:RDF>
      <cc:Work
         rdf:about="">
        <dc:format>image/svg+xml</dc:format>
        <dc:type
           rdf:resource="http://purl.org/dc/dcmitype/StillImage" />
        <dc:title></dc:title>
      </cc:Work>
    </rdf:RDF>
  </metadata>
  <g
     inkscape:label="Layer 1"
     inkscape:groupmode="layer"
     id="layer1"
     transform="translate(341.54974,638.95505)">
    <g
       style="fill-rule:evenodd;stroke-width:28.22200012;stroke-linejoin:round"
       id="g4666"
       transform="matrix(0.26458333,0,0,0.26458333,-2364.7891,-4026.6507)">
      <g
         id="g4532">
        <g
           class="Master_Slide"
           id="id2">
          <g
             class="Background"
             id="bg-id2" />
          <g
             class="BackgroundObjects"
             id="bo-id2" />
        </g>
      </g>
      <g
         id="g4594"
         class="SlideGroup">
        <g
           id="g4592">
          <g
             id="container-id1">
            <g
               clip-path="url(#presentation_clip_path)"
               class="Slide"
               id="id1">
              <g
                 id="g4588"
                 class="Page">
                <g
                   id="g4541"
                   class="com.sun.star.drawing.CustomShape"
                   transform="translate(36,-1)">
                  <g
                     id="id3">
                    <rect
                       id="rect4534"
                       height="2544"
                       width="2112"
                       y="14723"
                       x="10825"
                       class="BoundingBox"
                       style="fill:none;stroke:none" />
                    <path
                       id="path4536"
                       d="m 10826,16630 v -1270 l 1054,-636 1055,636 v 1270 l -1055,635 z"
                       inkscape:connector-curvature="0"
                       style="fill:#ffdbb6;stroke:none" />
                    <path
                       id="path4538"
                       d="m 10826,16630 v -1270 l 1054,-636 1055,636 v 1270 l -1055,635 z"
                       inkscape:connector-curvature="0"
                       style="fill:none;stroke:#ffdbb6" />
                  </g>
                </g>
                <g
                   id="g4550"
                   class="com.sun.star.drawing.CustomShape"
                   transform="translate(10)">
                  <g
                     id="id4">
                    <rect
                       id="rect4543"
                       height="2544"
                       width="2112"
                       y="14723"
                       x="8717"
                       class="BoundingBox"
                       style="fill:none;stroke:none" />
                    <path
                       id="path4545"
                       d="m 8718,16630 v -1270 l 1054,-636 1055,636 v 1270 l -1055,635 z"
                       inkscape:connector-curvature="0"
                       style="fill:#ff972f;stroke:none" />
                    <path
                       id="path4547"
                       d="m 8718,16630 v -1270 l 1054,-636 1055,636 v 1270 l -1055,635 z"
                       inkscape:connector-curvature="0"
                       style="fill:none;stroke:#ff972f" />
                  </g>
                </g>
                <g
                   id="g4559"
                   class="com.sun.star.drawing.CustomShape"
                   transform="translate(22,12)">
                  <g
                     id="id5">
                    <rect
                       id="rect4552"
                       height="2544"
                       width="2112"
                       y="16637"
                       x="9771"
                       class="BoundingBox"
                       style="fill:none;stroke:none" />
                    <path
                       id="path4554"
                       d="m 9772,18544 v -1270 l 1054,-636 1055,636 v 1270 l -1055,635 z"
                       inkscape:connector-curvature="0"
                       style="fill:#ffbf00;stroke:none" />
                    <path
                       id="path4556"
                       d="m 9772,18544 v -1270 l 1054,-636 1055,636 v 1270 l -1055,635 z"
                       inkscape:connector-curvature="0"
                       style="fill:none;stroke:#ffbf00" />
                  </g>
                </g>
                <g
                   id="g4568"
                   class="com.sun.star.drawing.CustomShape">
                  <g
                     id="id6">
                    <rect
                       id="rect4561"
                       height="2544"
                       width="2112"
                       y="12817"
                       x="7660"
                       class="BoundingBox"
                       style="fill:none;stroke:none" />
                    <path
                       id="path4563"
                       d="m 7661,14724 v -1270 l 1054,-636 1055,636 v 1270 l -1055,635 z"
                       inkscape:connector-curvature="0"
                       style="fill:#ffbf00;stroke:none" />
                    <path
                       id="path4565"
                       d="m 7661,14724 v -1270 l 1054,-636 1055,636 v 1270 l -1055,635 z"
                       inkscape:connector-curvature="0"
                       style="fill:none;stroke:#ffbf00" />
                  </g>
                </g>
                <g
                   id="g4577"
                   class="com.sun.star.drawing.CustomShape"
                   transform="translate(28)">
                  <g
                     id="id7">
                    <rect
                       id="rect4570"
                       height="2544"
                       width="2112"
                       y="12817"
                       x="9768"
                       class="BoundingBox"
                       style="fill:none;stroke:none" />
                    <path
                       id="path4572"
                       d="m 9769,14724 v -1270 l 1054,-636 1055,636 v 1270 l -1055,635 z"
                       inkscape:connector-curvature="0"
                       style="fill:#be480a;stroke:none" />
                    <path
                       id="path4574"
                       d="m 9769,14724 v -1270 l 1054,-636 1055,636 v 1270 l -1055,635 z"
                       inkscape:connector-curvature="0"
                       style="fill:none;stroke:#be480a" />
                  </g>
                </g>
                <g
                   id="g4586"
                   class="com.sun.star.drawing.CustomShape"
                   transform="translate(52)">
                  <g
                     id="id8">
                    <rect
                       id="rect4579"
                       height="2544"
                       width="2112"
                       y="12817"
                       x="11876"
                       class="BoundingBox"
                       style="fill:none;stroke:none" />
                    <path
                       id="path4581"
                       d="m 11877,14724 v -1270 l 1054,-636 1055,636 v 1270 l -1055,635 z"
                       inkscape:connector-curvature="0"
                       style="fill:#ff972f;stroke:none" />
                    <path
                       id="path4583"
                       d="m 11877,14724 v -1270 l 1054,-636 1055,636 v 1270 l -1055,635 z"
                       inkscape:connector-curvature="0"
                       style="fill:none;stroke:#ff972f" />
                  </g>
                </g>
              </g>
            </g>
          </g>
        </g>
      </g>
    </g>
  </g>
</svg>
